<svg width="577" height="145" viewBox="0 0 577 145" fill="none" xmlns="http://www.w3.org/2000/svg">
<path d="M0 77.3C0.5 74.6 0.9 71.9 1.5 69.2C7 43.3 29.3 23.3 55.6 20.6C63.1 19.8 70.5 20.3 77.9 21.9C78.5 22 79.1 22.1 80 22.3C79 19.9 78.1 17.9 77.3 15.8C75.3 10.9 75.6 6.1 78.2 1.5C78.5 1 78.9 0.4 79.2 0C80.1 2.9 80.6 5.79999 81.9 8.39999C84.7 14.3 89.3 18.7 94.7 22.3C101.7 26.9 106.6 33.3 110.3 40.7C110.2 40.8 110.1 40.9 110 40.9C101.6 35.1 92 33.5 82 33.5C76.9 33.5 71.7 33.8 66.6 34.5C57.2 35.7 50.2 41.2 44.7 48.4C37.3 58.2 36.7 68.9 41.6 79.9C43.9 85.1 47.8 89 53 91.7C61.6 96 70.7 98.3 80.1 100C82.8 100.5 85.4 101.4 88 102.2C89.1 102.6 90.1 103.2 91 103.9C94.4 106.5 94.2 110.9 90.4 112.9C86.4 115.1 82 115 77.7 114.1C71.1 112.8 65.8 109.6 62.6 103.5C62.4 103.1 61.8 102.7 61.4 102.8C52.1 104.1 42.8 105.5 33.2 106.9C33.5 108.2 33.7 109.3 34.1 110.4C39.4 125.9 49.8 135.7 66.3 138.1C72.2 139 78.2 138.8 84.2 139.1C85 139.1 85.9 139 86.7 139.1C83.7 141 80.4 142 77 142.6C73.6 143.2 70.2 143.6 66.9 144.1C64.1 144.1 61.3 144.1 58.5 144.1C56.9 143.9 55.3 143.6 53.6 143.4C28.1 140.3 7.8 122.2 1.9 97.2C1.1 93.8 0.7 90.3 0 86.8C0 83.7 0 80.5 0 77.3Z" fill="#228B22"/>
<path d="M480.1 40.3C479.6 41.6 479.1 43 478.7 44.3C472.3 63.1 465.8 81.9 459.5 100.7C458.9 102.6 458 103.1 456.1 103C450.9 102.9 451 102.9 449.3 98.1C442.8 79.3 436.3 60.4 429.8 41.6C429.6 41.1 429.4 40.5 428.8 40.1C428.8 61 428.8 81.9 428.8 102.8C424.8 102.8 421.1 102.8 417.2 102.8C417.2 78.3 417.2 54 417.2 29.4C417.9 29.4 418.5 29.3 419.2 29.3C425.4 29.3 431.6 29.4 437.7 29.3C439.3 29.3 439.9 29.9 440.4 31.3C445.4 45.6 450.4 59.9 455.4 74.2C455.6 74.7 455.8 75.2 456.1 75.9C456.4 75.4 456.7 75.1 456.8 74.7C461.8 60.3 466.7 45.9 471.7 31.5C472.3 29.8 473.1 29.2 475 29.2C481.1 29.3 487.1 29.3 493.2 29.3C493.9 29.3 494.5 29.3 495.5 29.3C495.5 30.1 495.5 30.8 495.5 31.4C495.5 54.5 495.5 77.7 495.5 100.8C495.5 102.5 495 103 493.3 102.9C489.1 102.8 485 102.9 480.6 102.9C480.6 81.9 480.6 61.1 480.6 40.3C480.5 40.4 480.3 40.4 480.1 40.3Z" fill="#635551"/>
<path d="M353.7 79.4C353.7 78.8 353.7 78.1 353.7 77.5C353.7 62.2 353.7 46.9 353.7 31.6C353.7 29.8 354.3 29.3 356 29.4C358.6 29.5 361.1 29.5 363.7 29.4C364.9 29.4 365.3 29.8 365.3 31C365.3 36.3 365.3 41.7 365.3 47C365.3 65 365.3 83 365.3 101C365.3 102.7 364.8 103.2 363.1 103.1C359.7 103 356.2 103 352.8 103.1C351.5 103.1 350.8 102.7 350.2 101.6C339.5 84.9 328.8 68.3 318 51.6C317.7 51.2 317.4 50.7 316.7 50.3C316.7 50.9 316.6 51.5 316.6 52.1C316.6 68.3 316.6 84.5 316.6 100.8C316.6 102.6 316.1 103.1 314.3 103C311.7 102.9 309 102.9 306.4 103C305.2 103 304.8 102.6 304.8 101.4C304.8 77.9 304.8 54.4 304.8 30.9C304.8 29.7 305.2 29.3 306.4 29.3C310.7 29.4 315 29.4 319.3 29.3C320.5 29.3 321.2 29.7 321.8 30.7C330.9 45 340.1 59.2 349.3 73.5C350.6 75.5 351.9 77.5 353.2 79.5C353.4 79.5 353.6 79.5 353.7 79.4Z" fill="#635551"/>
<path d="M190.8 44.1C189.8 44.4 189 44.6 188.1 44.8C184.9 45.6 181.7 46.3 178.4 47C177.9 47.1 176.8 46.8 176.6 46.4C174.2 41.6 170.1 39.6 165 39.2C161.5 38.9 158 39 154.7 40.2C150.9 41.6 148.4 44.6 148.7 48.1C148.8 49.7 149.6 51.4 150.6 52.6C153 55.3 156.4 56.1 159.7 56.9C166.3 58.6 173 60 179.6 62C186.5 64.1 191.4 68.6 193.2 75.9C195.7 86 191.2 95.3 181.6 100.1C173 104.4 163.9 105 154.6 103.8C148.9 103 143.5 101.4 138.7 98.2C134.5 95.4 131.7 91.6 130 86.9C129.6 85.8 129.7 85.2 131 85C134.8 84.3 138.6 83.5 142.4 82.8C142.9 82.7 143.8 83.1 143.9 83.5C145.5 88.6 149.3 91.3 154.2 92.5C159.9 93.9 165.7 94.2 171.4 92.3C175.2 91 178.2 88.8 178.6 84.4C178.9 80.7 177.3 77.4 173.8 76.1C169.5 74.5 164.9 73.5 160.4 72.3C155.1 70.8 149.6 69.5 144.4 67.6C137 64.8 133.3 56.4 133.8 49.1C134.3 40.5 139 34.8 146.5 31.6C159 26.3 171.2 27.2 182.9 34.1C186.9 36.1 189.5 39.6 190.8 44.1Z" fill="#635551"/>
<path d="M576.7 103C571.6 103 566.8 103 562 102.9C561.6 102.9 561 102.1 560.8 101.6C559 96.8 557.2 92 555.5 87.1C555.1 85.9 554.5 85.5 553.3 85.5C544.2 85.6 535.1 85.5 526 85.5C524.8 85.5 524.3 85.9 523.9 87C522.2 91.8 520.5 96.5 518.8 101.3C518.4 102.5 517.8 103 516.5 103C513 102.9 509.6 103 505.8 103C507 99.7 508.1 96.6 509.2 93.6C516.2 74 523.3 54.4 530.3 34.8C530.7 33.6 531.3 32.4 531.6 31.2C531.9 29.7 532.8 29.4 534.2 29.4C538.8 29.5 543.5 29.5 548.1 29.4C549.6 29.4 550.2 29.8 550.8 31.2C555.1 43.3 559.6 55.4 564 67.6C568.1 79 572.3 90.5 576.4 101.9C576.4 102.1 576.4 102.4 576.7 103ZM550.9 74.7C547.1 63.9 543.4 53.4 539.6 42.9C539.4 42.9 539.3 43 539.1 43C535.4 53.5 531.7 64 527.9 74.7C535.7 74.7 543.1 74.7 550.9 74.7Z" fill="#635551"/>
<path d="M231.5 59.5C233.7 55.8 235.8 52.3 237.9 48.9C241.5 42.9 245.1 36.9 248.6 30.9C249.2 29.8 249.9 29.4 251.2 29.4C255.2 29.5 259.1 29.4 263.4 29.4C263 30.1 262.8 30.6 262.5 31C254.5 44.2 246.5 57.4 238.6 70.6C238.1 71.5 237.8 72.6 237.7 73.7C237.6 82.8 237.6 91.8 237.7 100.9C237.7 102.7 237.1 103.2 235.4 103.1C231.7 103 227.9 103 224.2 103.1C222.7 103.1 222.2 102.7 222.2 101.1C222.3 92 222.3 83 222.2 73.9C222.2 72.7 221.8 71.3 221.2 70.3C212.9 57.2 204.5 44.1 196.2 31C195.9 30.6 195.7 30.2 195.3 29.5C196.2 29.5 196.8 29.4 197.4 29.4C201.7 29.4 206 29.5 210.3 29.3C212.2 29.2 213.2 29.9 214.2 31.5C219.6 40.4 225.2 49.2 230.6 58C230.8 58.5 231.1 58.8 231.5 59.5Z" fill="#635551"/>
<path d="M398.3 103C393.8 103 389.4 103 385 103C384.7 103 384.2 102.4 384 102C383.8 101.6 384 101.2 384 100.7C384 77.7 384 54.7 384 31.7C384 29.8 384.5 29.3 386.3 29.4C390.3 29.5 394.2 29.4 398.4 29.4C398.3 54 398.3 78.3 398.3 103Z" fill="#635551"/>
<path d="M271.8 66.2C271.8 54.6 271.8 42.9 271.8 31.3C271.8 29.8 272.2 29.3 273.8 29.3C277.5 29.4 281.1 29.4 284.8 29.3C286 29.3 286.4 29.7 286.4 30.9C286.4 54.4 286.4 77.9 286.4 101.4C286.4 102.6 286 103 284.8 103C281.1 102.9 277.5 102.9 273.8 103C272.3 103 271.8 102.6 271.8 101C271.8 89.5 271.8 77.9 271.8 66.2Z" fill="#635551"/>
<path d="M96.3 66.3C104.4 63.9 112.3 61.5 120.5 59.1C123.6 69.8 125.5 80.5 123.7 91.9C120.4 81.6 112.2 77.6 103.3 74.8C97.5 73 91.4 72.2 85.5 70.6C81.7 69.6 77.9 68.3 74.2 66.8C71 65.5 70.2 64.1 70.6 61.8C71.1 58.8 73 56.8 76.2 56.7C79.5 56.6 82.8 56.7 86 57.3C90.9 58.3 94.6 61.2 96.3 66.3Z" fill="#228B22"/>
<path d="M526.9 113.6C531.5 113.6 536.1 113.3 540.7 113.7C544.7 114.1 546.8 116.3 547.3 119.6C547.9 123.2 546.9 126.3 543.5 128.2C543.3 128.3 543.2 128.4 542.9 128.7C544.8 131.8 546.7 135 548.8 138.5C546.2 138.5 544 138.6 541.8 138.4C541.4 138.4 541 137.8 540.7 137.3C539.6 135.5 538.4 133.7 537.6 131.7C536.8 129.8 535.6 129.3 533.5 130C533.5 132.7 533.5 135.5 533.5 138.4C531.2 138.4 529.2 138.4 527 138.4C526.9 130.1 526.9 121.8 526.9 113.6ZM533.5 124.9C535.3 124.7 537 124.7 538.6 124.3C540.2 123.9 540.9 122.6 540.8 120.9C540.7 119.3 539.7 118.5 538.2 118.3C536.7 118.1 535.1 118.1 533.5 118C533.5 120.4 533.5 122.5 533.5 124.9Z" fill="#635551"/>
<path d="M495.9 125.7C496 124.4 496.1 123.1 496.3 121.9C497.3 116.3 501.3 112.9 506.8 112.8C512.3 112.7 516.5 115.7 517.5 121.3C518 124.2 518 127.4 517.5 130.3C516.4 136 512.2 139.1 506.7 139C501.1 138.8 497.2 135.3 496.2 129.6C496.1 128.2 496 127 495.9 125.7ZM511.6 125.8C511.2 123.9 510.9 122.1 510.3 120.4C509.8 119 508.7 118.1 507.1 118.1C505.5 118.1 504.4 119 503.9 120.4C502.5 124 502.5 127.7 504 131.3C504.5 132.6 505.6 133.5 507.1 133.5C508.7 133.5 509.9 132.7 510.4 131.3C510.9 129.5 511.2 127.7 511.6 125.8Z" fill="#635551"/>
<path d="M428.7 133.2C428.7 135.1 428.7 136.6 428.7 138.3C422.5 138.3 416.4 138.3 410.1 138.3C410.1 130.1 410.1 121.8 410.1 113.4C416.1 113.4 422.2 113.4 428.3 113.4C428.3 115 428.3 116.6 428.3 118.4C424.5 118.4 420.8 118.4 416.9 118.4C416.9 120 416.9 121.3 416.9 122.8C420 122.8 423.2 122.8 426.5 122.8C426.5 124.6 426.5 126.2 426.5 128.1C423.4 128.1 420.2 128.1 416.9 128.1C416.9 129.9 416.9 131.4 416.9 133.3C420.8 133.2 424.7 133.2 428.7 133.2Z" fill="#635551"/>
<path d="M436.8 113.2C439.3 113.2 441.3 113.1 443.4 113.2C443.9 113.2 444.6 113.8 444.9 114.2C446.2 116.5 447.5 118.9 448.9 121.6C450.1 119.2 451.2 117.1 452.2 114.8C452.8 113.4 453.6 113 455 113.1C456.6 113.2 458.3 113.1 460.3 113.1C458.2 116.7 456.4 120 454.3 123.2C453.1 125 453.1 126.3 454.3 128.1C456.5 131.3 458.5 134.7 460.7 138.3C458.1 138.3 455.9 138.4 453.7 138.3C453.3 138.3 452.9 137.7 452.6 137.2C451.2 134.7 449.8 132.2 448.3 129.5C447 132.1 445.6 134.5 444.4 137C443.9 138 443.3 138.4 442.1 138.4C440.3 138.3 438.6 138.4 436.4 138.4C437.9 135.9 439.3 133.7 440.6 131.5C441.8 129.5 443.9 127.4 443.9 125.3C443.9 123.3 441.8 121.3 440.6 119.3C439.3 117.4 438.2 115.5 436.8 113.2Z" fill="#635551"/>
<path d="M468.3 113.4C472.8 113.4 477.1 113 481.4 113.5C487.5 114.2 490.2 118.5 488.6 124C487.8 126.9 485.6 128.7 482.8 129.3C480.3 129.9 477.7 130 474.9 130.4C474.9 132.8 474.9 135.5 474.9 138.2C472.5 138.2 470.4 138.2 468.2 138.2C468.3 130 468.3 121.8 468.3 113.4ZM475.1 118.1C475.1 120.6 475.1 122.9 475.1 125.4C476.8 125.3 478.3 125.3 479.8 125.1C481.6 124.8 482.5 123.3 482.4 121.5C482.4 119.7 481.3 118.7 479.6 118.5C478.2 118.1 476.7 118.1 475.1 118.1Z" fill="#635551"/>
<path d="M569.2 118.4C569.2 125.1 569.2 131.6 569.2 138.3C566.9 138.3 564.8 138.3 562.5 138.3C562.5 131.8 562.5 125.2 562.5 118.5C559.8 118.5 557.2 118.5 554.5 118.5C554.5 116.7 554.5 115.1 554.5 113.4C562 113.4 569.4 113.4 577 113.4C577 115 577 116.6 577 118.4C574.4 118.4 571.9 118.4 569.2 118.4Z" fill="#635551"/>
<path d="M88.9 1.39999C89 1.69999 89.1 1.89998 89.2 2.19998C90.5 6.99998 93.3 10.6 97.8 12.8C104.5 16.1 109.1 21.3 111.4 28.4C112.2 30.9 112.4 33.7 112.8 36.3C112.6 36.3 112.5 36.3 112.3 36.4C110.6 34.1 109.2 31.5 107.2 29.6C103.4 25.9 99.4 22.4 95.3 19C91.7 16 88.3 12.9 87.6 8.09998C87.3 5.99998 87.9 3.7 88 1.5C88.4 1.4 88.7 1.39999 88.9 1.39999Z" fill="#228B22"/>
</svg>
